<svg width="138" height="138" viewBox="0 0 138 138" fill="none" xmlns="http://www.w3.org/2000/svg">
<g clip-path="url(#clip0_1_266)">
<path d="M138 50.439C137.992 48.9957 137.279 47.6474 136.091 46.828C134.804 45.9596 133.178 45.7627 131.721 46.299L108.1 55.2V41.998L108.813 42.481C109.951 43.28 111.309 43.7059 112.7 43.7C114.983 43.701 117.118 42.573 118.404 40.687C120.541 37.5475 119.739 33.2711 116.61 31.119L72.91 1.219C71.7601 0.426309 70.3967 0.00124586 69 0C67.6033 0.00124586 66.2399 0.426309 65.09 1.219L21.39 31.119C19.8701 32.1497 18.8239 33.7438 18.4828 35.5483C18.1418 37.3527 18.5341 39.2187 19.573 40.733C20.8738 42.6083 23.0178 43.719 25.3 43.7C26.6864 43.7009 28.0409 43.2841 29.187 42.504L29.9 41.998V55.798L6.325 46.345C4.90859 45.772 3.30012 45.9398 2.03238 46.7926C0.764636 47.6454 0.00309246 49.0721 0 50.6V112.7C0 115.241 2.05949 117.3 4.6 117.3H6.325C8.89654 117.284 11.2457 115.839 12.42 113.551L14.352 109.71L18.4 111.596C17.0469 115.177 18.6942 119.195 22.172 120.796C23.1304 121.24 24.1747 121.468 25.231 121.463C26.1287 121.457 27.0176 121.286 27.853 120.957C28.6038 122.881 30.0713 124.439 31.947 125.304C33.0016 125.784 34.1462 126.035 35.305 126.04C36.2632 126.042 37.2138 125.87 38.111 125.534C38.8391 127.57 40.356 129.228 42.32 130.134C43.3711 130.625 44.518 130.876 45.678 130.87C46.5059 130.865 47.3282 130.734 48.116 130.479V130.594C48.7481 132.315 50.0391 133.713 51.704 134.481C54.7245 135.863 58.3006 134.896 60.214 132.181L65.665 136.574C67.6896 138.104 70.3505 138.506 72.7366 137.642C75.1227 136.779 76.9102 134.767 77.487 132.296C79.9502 133.013 82.6079 132.304 84.387 130.456C85.54 129.319 86.2565 127.813 86.411 126.201C86.7403 126.222 87.0707 126.222 87.4 126.201C91.5984 126.211 95.1657 123.133 95.772 118.979C96.6839 119.287 97.6385 119.45 98.601 119.462C100.939 119.468 103.183 118.542 104.837 116.889C106.49 115.235 107.416 112.991 107.41 110.653C107.403 109.499 107.169 108.358 106.72 107.295L121.348 101.2L125.626 109.112C126.836 111.323 129.155 112.698 131.675 112.7H133.4C135.879 112.702 137.913 110.738 138 108.261V50.439ZM26.588 38.709C25.54 39.4266 24.1087 39.1589 23.391 38.111C23.0458 37.5984 22.9215 36.9684 23.046 36.363C23.1599 35.7757 23.4982 35.256 23.989 34.914L67.689 5.014C68.0693 4.73703 68.5296 4.59168 69 4.6C69.469 4.60111 69.9264 4.74557 70.311 5.014L114.011 34.914C115.045 35.6306 115.311 37.0445 114.609 38.088C113.891 39.1359 112.46 39.4036 111.412 38.686L70.311 10.58C69.5226 10.033 68.4774 10.033 67.689 10.58L26.588 38.709ZM69 15.249L103.5 38.87V57.5C101.139 59.438 100.5 62.7868 101.982 65.458L104.282 69.736L98.072 72.036C95.9498 72.8606 93.5574 72.5852 91.678 71.3L80.5 63.043V50.6C80.5 48.0595 78.4405 46 75.9 46H62.1C59.5595 46 57.5 48.0595 57.5 50.6V65.619C56.6304 66.8267 55.8611 68.1037 55.2 69.437C52.7143 69.6642 50.2473 70.0638 47.817 70.633C46.4655 70.969 45.0884 71.1921 43.7 71.3C40.6512 70.9362 37.683 70.0737 34.914 68.747L36.018 66.447C37.4492 63.6623 36.826 60.2629 34.5 58.167V38.87L69 15.249ZM75.9 59.915C71.47 57.6445 66.1418 58.0441 62.1 60.95V50.6H75.9V59.915ZM6.325 112.7H4.6V50.6L30.774 61.226C31.3669 61.465 31.8335 61.94 32.062 62.537C32.3026 63.1699 32.2521 63.8767 31.924 64.469L8.326 111.481C7.93147 112.222 7.16449 112.689 6.325 112.7ZM24.012 116.541C22.656 115.916 22.0599 114.312 22.678 112.953L25.3 107.433C25.9253 106.077 27.5287 105.481 28.888 106.099C29.5454 106.389 30.0533 106.939 30.291 107.617C30.5658 108.288 30.5658 109.039 30.291 109.71L27.6 115.23C27.3002 115.882 26.7526 116.386 26.079 116.633C25.4053 116.879 24.6613 116.846 24.012 116.541ZM36.409 121.141C35.5711 121.496 34.6249 121.496 33.787 121.141C32.9506 120.769 32.3026 120.071 31.993 119.209C31.649 118.361 31.649 117.412 31.993 116.564L35.949 108.1C36.3301 107.27 37.0249 106.625 37.881 106.306C38.2652 106.17 38.6695 106.1 39.077 106.099C39.5756 106.096 40.0692 106.198 40.526 106.398C41.3577 106.789 42.0021 107.491 42.32 108.353C42.6765 109.199 42.6765 110.152 42.32 110.998L38.364 119.37C37.9734 120.202 37.2711 120.846 36.409 121.164V121.141ZM44.229 125.741C42.5008 124.93 41.7431 122.882 42.527 121.141L45.425 115C45.8122 114.174 46.5049 113.531 47.357 113.206C47.7412 113.07 48.1455 113 48.553 112.999C49.0547 112.99 49.5512 113.101 50.002 113.321C50.8368 113.696 51.4841 114.393 51.796 115.253C52.1161 116.114 52.0747 117.068 51.681 117.898L49.013 123.74L48.829 124.131C48.4485 124.97 47.7482 125.622 46.8841 125.942C46.0201 126.262 45.064 126.222 44.229 125.833V125.741ZM53.636 130.065C53.0825 129.811 52.6524 129.348 52.44 128.777C52.2036 128.21 52.2036 127.573 52.44 127.006L53.153 125.465L55.292 120.865C55.7065 120.038 56.5765 119.539 57.5 119.6C57.8332 119.598 58.1628 119.669 58.466 119.807C59.0321 120.058 59.4732 120.526 59.6896 121.106C59.906 121.686 59.8795 122.329 59.616 122.889L56.741 129.122C56.4778 129.682 56.0001 130.112 55.4158 130.315C54.8316 130.519 54.19 130.478 53.636 130.203V130.065ZM101.568 113.528C100.013 115.098 97.5054 115.188 95.841 113.735L84.663 103.937L82.018 101.637C81.7861 101.427 81.5114 101.27 81.213 101.177C81.0983 101.166 80.9827 101.166 80.868 101.177C80.4024 101.087 79.9204 101.143 79.488 101.338C79.2212 101.481 78.9802 101.668 78.775 101.89C78.3703 102.325 78.1623 102.907 78.2 103.5C78.1902 103.569 78.1902 103.638 78.2 103.707C78.2755 104.228 78.5272 104.707 78.913 105.064L89.884 114.678C91.4464 116.139 91.5288 118.59 90.068 120.152C88.6072 121.714 86.1564 121.797 84.594 120.336L84.341 120.083L75.141 110.883C74.2391 109.981 72.7769 109.981 71.875 110.883C70.9731 111.785 70.9731 113.247 71.875 114.149L81.075 123.349C81.561 123.829 81.8346 124.483 81.8346 125.166C81.8346 125.849 81.561 126.503 81.075 126.983C80.0477 127.95 78.4453 127.95 77.418 126.983L75.44 124.982L72.864 122.406C72.4321 121.971 71.8443 121.726 71.231 121.726C70.6177 121.726 70.0299 121.971 69.598 122.406C69.1626 122.838 68.9177 123.426 68.9177 124.039C68.9177 124.652 69.1626 125.24 69.598 125.672L72.174 128.248C72.7386 128.788 73.0549 129.537 73.048 130.318C73.0001 131.385 72.3785 132.342 71.4236 132.819C70.4686 133.297 69.33 133.22 68.448 132.618L62.33 127.88L63.756 124.752C64.5362 123.085 64.6179 121.175 63.9829 119.447C63.348 117.72 62.0491 116.317 60.375 115.552C59.1509 114.999 57.792 114.815 56.465 115.023C56.3853 114.562 56.27 114.109 56.12 113.666C54.7663 109.956 50.9083 107.787 47.035 108.56C46.7427 106.122 45.351 103.952 43.2573 102.67C41.1636 101.388 38.5982 101.134 36.294 101.982C35.1731 102.407 34.16 103.075 33.327 103.937C32.6433 103.065 31.7597 102.371 30.751 101.913C27.0863 100.219 22.7418 101.814 21.045 105.478L20.194 107.364L16.422 105.57L32.844 72.864C36.2598 74.4963 39.933 75.5235 43.7 75.9C45.3847 75.7978 47.0558 75.5359 48.691 75.118C49.979 74.842 51.359 74.566 52.808 74.336L49.036 82.8C47.2792 86.8055 48.9806 91.4846 52.9 93.426H53.13C54.2068 93.9422 55.3859 94.2095 56.58 94.208C58.941 94.2179 61.19 93.2025 62.744 91.425L71.829 81.305L101.384 107.548C102.256 108.314 102.771 109.407 102.805 110.567C102.84 111.727 102.392 112.849 101.568 113.666V113.528ZM103.868 103.431L70.518 74.175C69.5591 73.4027 68.162 73.5225 67.3486 74.4468C66.5352 75.3711 66.594 76.7721 67.482 77.625L68.31 78.361L59.248 88.458C58.1686 89.6909 56.3975 90.0489 54.924 89.332H54.763C53.1512 88.4162 52.4872 86.4339 53.222 84.732L58.558 72.91C59.8161 70.1177 61.6229 67.6069 63.871 65.527C66.9227 62.6979 71.5511 62.4279 74.911 64.883L88.918 75.095C92.036 77.3329 96.065 77.8678 99.659 76.521L106.559 73.968L119.14 97.221L103.868 103.431ZM131.721 108.031C130.897 108.052 130.125 107.631 129.697 106.927L106.076 63.227C105.821 62.7694 105.779 62.2232 105.961 61.732C106.181 61.1717 106.635 60.7351 107.203 60.536L133.4 50.439V108.1L131.721 108.031Z" fill="black"/>
<path d="M69 41.4C74.081 41.4 78.2 37.281 78.2 32.2C78.2 27.119 74.081 23 69 23C63.919 23 59.8 27.119 59.8 32.2C59.8 37.281 63.919 41.4 69 41.4ZM69 27.6C71.5405 27.6 73.6 29.6595 73.6 32.2C73.6 34.7405 71.5405 36.8 69 36.8C66.4595 36.8 64.4 34.7405 64.4 32.2C64.4 29.6595 66.4595 27.6 69 27.6Z" fill="black"/>
</g>
<defs>
<clipPath id="clip0_1_266">
<rect width="138" height="138" fill="white"/>
</clipPath>
</defs>
</svg>
