<svg width="24" height="24" viewBox="0 0 24 24" fill="none" xmlns="http://www.w3.org/2000/svg">
<g clip-path="url(#clip0_1_403)">
<path d="M23.155 13.893C23.871 7.86599 22.811 4.06099 20.899 2.33999L20.9 2.33899C17.814 -0.600006 7.39202 -1.03501 3.70002 2.47099C2.04202 4.18599 1.45802 6.703 1.39402 9.819C1.33002 12.936 1.25402 18.775 6.69502 20.359H6.70002L6.69502 22.778C6.69502 22.778 6.65802 23.758 7.28402 23.955C8.00002 24.187 8.32402 23.732 10.551 21.072C14.275 21.395 17.135 20.655 17.46 20.547C18.212 20.295 22.467 19.732 23.155 13.893ZM10.918 19.37C10.918 19.37 8.56102 22.309 7.82802 23.072C7.58802 23.32 7.32502 23.297 7.32902 22.805C7.32902 22.482 7.34702 18.789 7.34702 18.789C2.73402 17.467 3.00602 12.495 3.05602 9.894C3.10602 7.292 3.58202 5.16099 4.98602 3.72599C8.22502 0.688994 17.362 1.36799 19.69 3.55599C22.536 6.07899 21.523 13.207 21.529 13.45C20.944 18.324 17.496 18.633 16.862 18.844C16.591 18.934 14.076 19.581 10.918 19.37Z" fill="white"/>
<path d="M12.222 4.297C11.837 4.297 11.837 4.897 12.222 4.902C15.209 4.925 17.669 7.007 17.696 10.826C17.696 11.229 18.286 11.224 18.281 10.821H18.28C18.248 6.706 15.562 4.32 12.222 4.297Z" fill="white"/>
<path d="M16.151 10.193C16.142 10.591 16.731 10.61 16.736 10.207C16.785 7.938 15.386 6.06901 12.757 5.87201C12.372 5.84401 12.332 6.44901 12.716 6.47701C14.996 6.65001 16.197 8.20601 16.151 10.193Z" fill="white"/>
<path d="M15.521 12.774C15.027 12.488 14.524 12.666 14.316 12.947L13.881 13.51C13.66 13.796 13.247 13.758 13.247 13.758C10.233 12.961 9.42697 9.80701 9.42697 9.80701C9.42697 9.80701 9.38997 9.38001 9.66597 9.15101L10.21 8.70101C10.482 8.48501 10.654 7.96501 10.377 7.45401C9.63697 6.11701 9.13997 5.65601 8.88697 5.30201C8.62097 4.96901 8.22097 4.89401 7.80497 5.11901H7.79597C6.93097 5.62501 5.98397 6.57201 6.28697 7.54701C6.80397 8.57501 7.75397 11.852 10.782 14.328C12.205 15.499 14.457 16.699 15.413 16.976L15.422 16.99C16.364 17.304 17.28 16.32 17.769 15.429V15.422C17.986 14.991 17.914 14.583 17.597 14.316C17.035 13.768 16.187 13.163 15.521 12.774Z" fill="white"/>
<path d="M13.169 8.10399C14.13 8.15999 14.596 8.66199 14.646 9.69299C14.664 10.096 15.249 10.068 15.231 9.66499C15.167 8.31899 14.465 7.56899 13.201 7.49899C12.816 7.47599 12.78 8.08099 13.169 8.10399Z" fill="white"/>
</g>
<defs>
<clipPath id="clip0_1_403">
<rect width="24" height="24" fill="white"/>
</clipPath>
</defs>
</svg>
