<svg width="24" height="24" viewBox="0 0 24 24" fill="none" xmlns="http://www.w3.org/2000/svg">
<g clip-path="url(#clip0_1_398)">
<path d="M17.507 14.307L17.498 14.382C15.299 13.286 15.069 13.14 14.785 13.566C14.588 13.861 14.014 14.53 13.841 14.728C13.666 14.923 13.492 14.938 13.195 14.803C12.895 14.653 11.932 14.338 10.792 13.318C9.90399 12.523 9.30799 11.548 9.13199 11.248C8.83899 10.742 9.45199 10.67 10.01 9.61399C10.11 9.40399 10.059 9.23899 9.98498 9.08999C9.90998 8.93999 9.31299 7.46999 9.06299 6.88399C8.82298 6.29999 8.57599 6.37399 8.39099 6.37399C7.81499 6.32399 7.39398 6.33199 7.02298 6.71799C5.40898 8.49199 5.81598 10.322 7.19699 12.268C9.91099 15.82 11.357 16.474 14.001 17.382C14.715 17.609 15.366 17.577 15.881 17.503C16.455 17.412 17.648 16.782 17.897 16.077C18.152 15.372 18.152 14.787 18.077 14.652C18.003 14.517 17.807 14.442 17.507 14.307Z" fill="white"/>
<path d="M20.52 3.44894C12.831 -3.98406 0.106 1.40694 0.101 11.8929C0.101 13.9889 0.65 16.0329 1.696 17.8379L0 23.9999L6.335 22.3479C14.24 26.6179 23.996 20.9479 24 11.8989C24 8.72295 22.76 5.73394 20.505 3.48794L20.52 3.44894ZM22.002 11.8659C21.996 19.4989 13.617 24.2659 6.99 20.3699L6.63 20.1559L2.88 21.1309L3.885 17.4859L3.646 17.1109C-0.478 10.5459 4.26 1.96594 12.072 1.96594C14.726 1.96594 17.217 3.00094 19.093 4.87594C20.968 6.73494 22.002 9.22594 22.002 11.8659Z" fill="white"/>
</g>
<defs>
<clipPath id="clip0_1_398">
<rect width="24" height="24" fill="white"/>
</clipPath>
</defs>
</svg>
