<svg width="80" height="80" viewBox="0 0 80 80" fill="none" xmlns="http://www.w3.org/2000/svg">
<path d="M25.9131 28.6813C29.1388 27.9645 32.4338 26.0511 35.1914 23.2935C37.9489 20.536 39.8624 17.2408 40.5792 14.0153C41.3382 10.5995 40.6828 7.64509 38.7336 5.69589L35.1912 2.15355C33.2422 0.204352 30.2874 -0.451215 26.872 0.307936C23.6463 1.02475 20.3513 2.93817 17.5937 5.69573C14.8362 8.4533 12.9226 11.7485 12.2058 14.9741C11.4468 18.3899 12.1022 21.3443 14.0514 23.2935L17.5937 26.8359C19.0138 28.2559 20.9672 28.9893 23.2442 28.9893C24.0925 28.9893 24.9859 28.8874 25.9131 28.6813ZM19.5417 25.4436C19.5953 25.4444 19.6479 25.4469 19.7018 25.4469C20.55 25.4469 21.4436 25.3451 22.3707 25.139C25.5963 24.4223 28.8913 22.5088 31.649 19.7512C32.9527 18.4474 34.071 17.0216 34.973 15.5136C35.3051 14.9582 35.1242 14.2387 34.5688 13.9066C34.0137 13.5746 33.2939 13.7553 32.9617 14.3107C32.1585 15.6534 31.1594 16.9264 29.9918 18.094C27.5453 20.5405 24.6583 22.2299 21.8623 22.8512C19.2566 23.4304 17.071 22.9989 15.7083 21.6363C14.3458 20.2738 13.9144 18.0884 14.4934 15.4824C15.1147 12.6864 16.8043 9.79927 19.2506 7.35277C21.6971 4.90627 24.5842 3.21689 27.3802 2.59554C29.9861 2.01669 32.1715 2.44806 33.5342 3.81043C34.8477 5.12391 35.2978 7.22044 34.8019 9.71397C34.6756 10.3486 35.088 10.9656 35.7226 11.0918C36.3572 11.2181 36.974 10.8057 37.1004 10.1711C37.2753 9.29213 37.3517 8.44596 37.3384 7.63978C38.4919 9.01231 38.8317 11.0763 38.2916 13.5068C37.6702 16.3027 35.9807 19.1898 33.5343 21.6363C31.088 24.0828 28.2008 25.7722 25.4048 26.3936C22.9765 26.933 20.9141 26.5945 19.5417 25.4436Z" fill="#D5EFFA"/>
<path d="M67.7942 36.6781C67.0774 33.4525 65.164 30.1575 62.4064 27.3999C59.6489 24.6423 56.3537 22.7289 53.1282 22.0121C49.7126 21.2531 46.758 21.9083 44.8088 23.8575L41.2665 27.3999C39.3173 29.3491 38.6619 32.3035 39.4208 35.7193C40.1377 38.9449 42.0511 42.24 44.8086 44.9975C47.5662 47.7551 50.8614 49.6685 54.0869 50.3853C55.0143 50.5914 55.9073 50.6933 56.7558 50.6933C59.0325 50.6933 60.9864 49.9599 62.4064 48.5399L65.9488 44.9975C67.8978 43.0483 68.5532 40.0937 67.7942 36.6781ZM52.6198 24.2997C55.4158 24.921 58.3029 26.6106 60.7494 29.0569C63.1959 31.5033 64.8853 34.3905 65.5066 37.1865C66.0856 39.7924 65.6541 41.9778 64.2917 43.3405C62.9292 44.703 60.7439 45.1345 58.1378 44.5554C55.3418 43.934 52.4547 42.2445 50.0082 39.7981C47.5618 37.3516 45.8723 34.4646 45.2509 31.6686C44.6719 29.0627 45.1033 26.8773 46.4658 25.5146C47.8285 24.1521 50.014 23.7207 52.6198 24.2997ZM54.5954 48.0976C51.7994 47.4762 48.9123 45.7867 46.4658 43.3403C44.0193 40.894 42.33 38.0067 41.7086 35.2107C41.1687 32.7813 41.508 30.718 42.6604 29.3455C42.6463 30.2424 42.7438 31.1895 42.9632 32.1766C43.68 35.4023 45.5934 38.6973 48.351 41.4549C51.1085 44.2124 54.4037 46.1259 57.6292 46.8427C58.5566 47.0487 59.4497 47.1506 60.2982 47.1506C60.3521 47.1506 60.4049 47.1481 60.4583 47.1473C59.0858 48.2985 57.0236 48.6372 54.5954 48.0976Z" fill="#D5EFFA"/>
<path d="M44.8727 53.1641C42.9235 51.2151 39.9694 50.5595 36.5533 51.3187C33.3276 52.0355 30.0326 53.9489 27.275 56.7065C24.5175 59.464 22.6039 62.7592 21.8871 65.9847C21.1281 69.4003 21.7835 72.3549 23.7327 74.3041L27.275 77.8465C28.6951 79.2665 30.6485 80 32.9256 79.9999C33.7738 79.9999 34.6673 79.898 35.5945 79.6919C38.8201 78.9751 42.1151 77.0617 44.8727 74.3041C47.6302 71.5466 49.5437 68.2514 50.2605 65.0259C51.0195 61.6103 50.3642 58.6557 48.415 56.7065L44.8727 53.1641ZM47.9727 64.5177C47.3514 67.3137 45.6618 70.2007 43.2155 72.6472C40.769 75.0936 37.8819 76.7831 35.0859 77.4045C32.4802 77.9838 30.2946 77.5523 28.9321 76.1896C27.5696 74.827 27.138 72.6416 27.7172 70.0356C28.3385 67.2396 30.0281 64.3525 32.4744 61.906C33.8284 60.5521 35.312 59.4326 36.8845 58.5785C37.4532 58.2696 37.6636 57.5583 37.3548 56.9896C37.0459 56.421 36.3345 56.2103 35.7658 56.5193C33.9955 57.4809 32.3305 58.7358 30.8174 60.249C28.0598 63.0065 26.1464 66.3017 25.4296 69.5272C25.2102 70.5145 25.1127 71.4616 25.1268 72.3585C23.9744 70.986 23.6351 68.9227 24.175 66.4933C24.7964 63.6973 26.4859 60.8102 28.9322 58.3637C31.3786 55.9172 34.2658 54.2278 37.0618 53.6064C39.4943 53.066 41.5597 53.4066 42.9321 54.5623C42.2923 54.5506 41.6283 54.5942 40.9427 54.7009C40.3033 54.8006 39.8656 55.3996 39.9653 56.039C40.065 56.6785 40.6645 57.1166 41.3035 57.0164C43.595 56.6593 45.5323 57.138 46.7581 58.3638C48.1204 59.7262 48.5519 61.9118 47.9727 64.5177Z" fill="#D5EFFA"/>
</svg>
